<svg width="331" height="212" viewBox="0 0 331 212" fill="none" xmlns="http://www.w3.org/2000/svg">
<g clip-path="url(#clip0_175_5)">
<path d="M71.5208 31.8716C77.5105 32.2826 84.0797 32.9986 90.048 32.9386C107.283 32.7659 127.013 27.3574 142.681 20.1598C154.009 14.9556 164.531 9.00809 176.556 4.92857C186.998 1.38596 199.618 -1.47088 210.12 3.48397C214.102 5.36244 218.496 10.0279 219.939 14.0936L219.448 14.2319C219.045 14.7232 217.797 15.3318 217.123 15.2582C216.268 14.6625 216.41 14.4353 215.958 13.2638C215.315 12.8302 214.197 12.8794 213.324 12.807C212.658 12.1847 211.798 11.5178 211.079 10.9316C210.446 10.2069 209.817 9.96807 208.947 9.66409C207.948 15.1915 205.017 21.9744 208.556 27.0351C209.151 27.8709 209.871 28.6096 210.691 29.2254C211.506 30.1346 213.834 31.2524 214.945 31.8051C217.487 30.3644 219.323 28.6104 221.009 26.2501L221.705 26.7641C221.909 28.9681 220.828 32.3139 220.051 34.3619C215.276 45.9851 201.791 54.4469 190.415 59.0466C162.229 70.4431 127.13 67.8129 99.0697 57.4309C87.3362 53.0896 76.2818 43.3759 71.5208 31.8716ZM132.31 60.5239C156.859 63.2946 184.021 61.0926 204.318 45.3426C205.546 44.3894 210.656 39.9049 211.12 38.6064L210.855 38.2111C196.803 49.1036 186.538 54.0849 169.007 57.5631C162.705 58.8779 156.306 59.6786 149.875 59.9576C145.685 60.1431 141.423 60.0124 137.231 60.0584C135.681 60.0754 132.515 59.9194 131.164 60.2244C131.673 60.4796 131.741 60.4986 132.31 60.5239Z" fill="#31733A"/>
<path d="M208.947 9.66384C208.799 8.86017 208.718 9.09634 209.05 8.52539C211.656 8.55442 216.358 10.9909 218.21 12.8889C218.633 13.3261 219.046 13.7739 219.448 14.2317C219.045 14.723 217.797 15.3316 217.123 15.2579C216.268 14.6622 216.409 14.435 215.957 13.2636C215.315 12.8299 214.197 12.8792 213.324 12.8068C212.658 12.1844 211.798 11.5176 211.079 10.9314C210.446 10.2066 209.817 9.96782 208.947 9.66384Z" fill="#96C34E"/>
<path d="M290.78 85.8536C301.357 85.4321 310.717 90.2564 317 98.6379C316.477 95.3146 316.497 91.1059 316.415 87.6909C319.515 87.6949 326.215 87.3404 328.967 87.6261C329.457 89.2676 329.262 102.341 329.24 104.955C329.085 123.192 329.485 141.7 329.27 159.906C328.205 160.58 318.447 160.486 316.537 160.535C316.472 156.997 316.247 152.835 316.957 149.419C315.545 151.467 313.192 154.053 311.267 155.64C306.182 159.522 301.402 161.445 294.992 161.994C259.55 165.025 246.627 121.119 266.445 96.7926C272.615 89.2184 281.41 86.6689 290.78 85.8536ZM293.937 150.586C299.955 150.476 305.677 147.963 309.83 143.608C319.472 133.636 319.46 113.487 309.432 103.693C305.682 100.031 298.317 96.6771 293.037 97.3441C289.495 97.7221 286.977 97.9274 283.732 99.5899C266.777 108.274 265.735 135.367 280.63 146.425C284.402 149.225 289.205 150.888 293.937 150.586Z" fill="#EC2E29"/>
<path d="M113.64 85.8431C114.052 85.8134 114.465 85.7941 114.878 85.7849C135.685 85.3384 148.447 100.69 149.872 120.428C150.027 122.583 149.875 124.863 149.919 127.048C147.237 127.417 138.902 127.195 135.821 127.19L108.87 127.156C104.394 127.152 97.9025 126.955 93.5712 127.292C93.7067 129.183 93.9145 130.771 94.3552 132.628C95.819 138.862 99.7552 144.232 105.259 147.504C117.539 154.964 130.625 148.781 137.455 137.235C138.168 136.422 137.824 136.62 138.75 136.329C141.136 136.615 146.551 140.185 149.008 141.635C141.052 162.449 111.108 168.202 94.1762 155.226C77.219 142.23 76.8592 114.423 88.9597 98.1894C95.289 89.6979 103.688 87.0264 113.64 85.8431ZM93.8688 116.805C101.168 116.604 108.739 116.686 116.062 116.684C121.759 116.682 131.644 116.34 136.962 116.726C133.453 106.273 128.075 98.0099 116.019 97.3509C109.85 97.8304 106.686 98.7659 101.975 103.061C97.2915 107.33 95.7688 110.835 93.8688 116.805Z" fill="#EC2E29"/>
<path d="M27.8802 31.8479C31.041 31.4689 35.469 32.1641 38.345 33.6721C38.3882 35.6691 38.912 44.5624 37.904 45.6426C37.3965 45.7436 33.2005 44.5084 31.9815 44.3666C19.3582 42.8996 20.2802 53.6246 20.2607 62.3706L20.2417 78.3291C20.237 81.2969 20.3442 85.0594 20.0525 87.9606C25.031 87.6949 30.0165 87.5886 35.0015 87.6414C36.0882 87.6456 37.5175 87.5801 38.2712 88.3399C38.7147 90.1564 38.518 97.1029 38.5062 99.2774C34.506 99.4551 24.0697 99.4394 20.2225 99.1719C20.019 103.595 20.29 110.163 20.29 114.786L20.2637 149.239C20.2615 152.086 20.1242 157.563 20.4655 160.173C16.2083 160.354 11.8502 160.354 7.57977 160.418C7.32377 157.529 7.49752 151.979 7.50117 148.874L7.51787 126.946L7.50099 109.373C7.49324 106.781 7.33724 101.658 7.66694 99.3399C6.12407 99.3974 2.46504 99.6586 1.12992 99.3154C0.264142 98.1966 0.534742 90.0451 0.605892 88.1714C2.66942 87.7614 5.70237 87.7584 7.78219 87.7771C7.72464 87.4614 7.68007 87.1434 7.64862 86.8241C7.20454 82.2674 7.44587 76.1576 7.51954 71.4986C7.81094 53.0764 3.69742 34.0449 27.8802 31.8479Z" fill="#EC2E29"/>
<path d="M185.797 85.8359C195.227 85.5269 202.193 91.3799 205.909 99.6507C203.217 100.476 198.012 103.466 195.385 104.91C193.477 101.908 191.863 99.1169 188.248 97.8844C186.098 97.1389 183.739 97.2897 181.702 98.3027C177.32 100.5 175.437 106.771 178.997 109.984C187.016 117.459 202.947 117.933 208.003 128.97C216.941 148.482 197.816 167.289 178.309 161.108C177.575 160.926 176.851 160.707 176.14 160.452C168.799 157.743 164.069 153.019 161.096 145.74C160.737 144.861 160.563 144.675 160.887 143.792C162.231 142.526 169.172 139.738 171.224 139.231C171.77 139.096 173.207 142.102 173.51 142.645C174.534 144.48 175.798 146.179 177.409 147.55C185.24 154.425 198.115 149.456 197.272 138.409C195.834 128.279 178.695 126.463 172.013 120.667C168.432 117.909 165.898 113.88 165.371 109.406C164.227 99.6911 168.607 91.0261 177.935 87.4964C180.885 86.3801 182.692 86.2021 185.797 85.8359Z" fill="#EC2E29"/>
<path d="M227.729 62.0333C231.392 62.0388 236.975 62.2021 240.476 61.8613C239.945 70.0173 240.977 79.7386 240.188 87.9706C244.647 87.9238 248.82 87.6978 253.342 87.7803C253.307 90.7696 253.09 96.6756 253.41 99.4153C249.162 99.1396 244.685 99.4391 240.254 99.1756C240.821 117.317 240.345 136.774 240.483 155.063C240.476 156.768 240.488 158.472 240.521 160.176C236.686 160.472 231.824 160.201 227.707 160.368C227.399 157.137 227.558 151.669 227.564 148.262L227.576 127.033L227.555 108.971C227.553 106.601 227.383 101.423 227.808 99.2788L220.364 99.5606C220.09 96.7421 220.233 91.0086 220.194 87.8703C222.74 87.6903 225.297 87.7208 227.838 87.9616C227.482 85.8436 227.32 63.6183 227.729 62.0333Z" fill="#EC2E29"/>
<path d="M49.7575 87.8147C53.447 87.621 58.5717 87.733 62.331 87.8087C61.9617 105.088 62.2632 123.428 62.259 140.786L62.2282 154.9C62.2267 156.204 62.6678 159.68 61.744 160.261C57.66 160.233 53.655 160.394 49.5845 160.413C49.3455 157.702 49.5022 153.045 49.502 150.169L49.4985 130.768L49.5027 100.91C49.5007 98.828 49.0967 88.8472 49.7575 87.8147Z" fill="#EC2E29"/>
<path d="M64.6355 182.122C72.532 181.122 79.7508 186.695 80.783 194.587C81.815 202.479 76.2723 209.721 68.384 210.785C60.4503 211.856 53.1573 206.274 52.119 198.336C51.081 190.397 56.693 183.127 64.6355 182.122ZM67.3833 207.95C73.7448 207.439 78.472 201.843 77.9133 195.486C77.3543 189.128 71.7233 184.443 65.3703 185.05C59.0843 185.65 54.4595 191.208 55.0123 197.499C55.5653 203.789 61.089 208.455 67.3833 207.95Z" fill="#31733A"/>
<path d="M208.947 9.66406C209.817 9.96804 210.446 10.2069 211.08 10.9316C211.798 11.5178 212.658 12.1847 213.324 12.807C214.197 12.8794 215.315 12.8301 215.958 13.2638C216.41 14.4353 216.268 14.6625 217.123 15.2582C217.798 15.3318 219.045 14.7232 219.448 14.2319L219.939 14.0936C222.124 13.7867 226.037 12.6349 228.475 12.1446C235.666 10.6984 246.39 9.20244 253.6 10.2034C267.978 10.9157 286.303 20.9271 285.725 37.3651C285.663 39.1721 285.37 41.0931 283.91 42.2786C282.46 43.4534 280.095 44.9524 278.435 43.4971C278.073 42.6511 278.093 42.5171 278.188 41.6246C279.698 39.1596 282.968 39.2946 281.688 34.5786C280.098 28.7186 275.813 22.9788 270.475 20.0264C255.92 11.9724 239.037 13.7347 223.584 17.7915C222.887 17.9745 222.187 18.1227 221.57 18.4595C221.965 21.211 222.01 24.0013 221.705 26.7641L221.009 26.2501C219.323 28.6104 217.487 30.3644 214.946 31.8051C213.834 31.2524 211.506 30.1346 210.691 29.2254C209.871 28.6096 209.151 27.8709 208.556 27.0351C205.017 21.9744 207.948 15.1915 208.947 9.66406Z" fill="#96C34E"/>
<path d="M219.939 14.0946C222.124 13.7876 226.037 12.6359 228.475 12.1456C235.666 10.6993 246.39 9.20341 253.6 10.2044C248.11 10.7371 240.857 11.1896 235.656 12.5703C230.478 13.9448 220.169 15.8732 216.046 19.1267L215.879 19.5769C217.256 21.2873 220.986 19.8104 218.357 23.5917C217.916 24.2267 217.96 26.6891 217.107 27.6158C216.203 27.5333 215.262 27.0013 214.427 26.5993C213.755 26.9101 211.947 27.8341 211.342 27.7966C211.202 25.7388 209.839 24.2371 209.165 22.4722C208.327 20.2799 210.114 12.945 211.08 10.9326C211.798 11.5188 212.658 12.1856 213.324 12.808C214.197 12.8804 215.315 12.8311 215.958 13.2648C216.41 14.4362 216.268 14.6634 217.123 15.2591C217.798 15.3328 219.045 14.7242 219.448 14.2329L219.939 14.0946Z" fill="#31733A"/>
<path d="M221.57 18.459C221.965 21.2105 222.01 24.0008 221.705 26.7636L221.009 26.2496C221.387 23.3486 220.115 21.772 220.371 19.1017C220.401 18.7922 221.157 18.6151 221.57 18.459Z" fill="#015411"/>
<path d="M139.054 181.732C144.247 181.786 151.212 181.763 155.292 185.46C161.489 191.076 161.226 200.757 155.993 206.784C150.974 211.545 145.363 210.931 138.867 211.156C138.785 205.427 139.051 199.386 138.922 193.569C138.861 190.828 138.77 183.957 139.054 181.732ZM153.623 204.684C154.491 203.748 155.158 202.966 155.746 201.808C158.054 197.264 157.097 191.289 153.318 187.823C150.247 185.018 145.887 184.97 141.953 184.997C141.483 191.728 142.432 201.032 141.947 208.031C146.494 207.952 150.113 208.078 153.623 204.684Z" fill="#31733A"/>
<path d="M212.09 181.059C212.593 181.24 233.597 202.968 235.029 204.826C235.214 198.453 234.792 189.334 235.009 182.683C235.027 182.147 235.684 181.817 236.104 181.601C236.882 181.591 237.004 181.575 237.612 182.044C238.436 183.048 237.855 208.218 238.057 211.889C237.352 211.928 216.862 190.708 215.011 188.204C214.967 193.515 214.959 198.827 214.99 204.139C214.994 206.05 215.043 208.38 214.934 210.315C214.905 210.837 214.672 210.89 214.29 211.149C213.101 211.226 213.346 211.385 212.454 210.86C212.14 210.344 211.869 209.63 211.884 209.023C212.113 199.754 211.66 190.312 212.09 181.059Z" fill="#31733A"/>
<path d="M273.597 182.073C273.792 182.059 273.987 182.048 274.182 182.039C277.54 181.897 287.005 184.267 287.09 188.329C286.627 189.394 286.522 189.229 285.477 190.035C284.195 188.725 282.332 187.017 280.705 186.267C274.52 183.42 266.807 185.578 263.937 191.803C262.732 194.35 262.615 197.276 263.61 199.912C264.792 203.097 267.3 205.612 270.382 206.991C273.1 208.224 276.2 208.291 278.967 207.176C283.107 205.53 284.472 202.854 286.11 199.124L283.062 199.033C281.522 199.047 277.582 199.43 276.58 198.406C276.515 197.571 276.42 197.187 276.802 196.421C277.815 195.559 286.985 195.879 289.187 195.83C289.105 196.915 289.022 198.038 288.882 199.117C287.462 210.144 274.375 214.132 265.91 207.925C262.782 205.643 260.705 202.196 260.152 198.364C258.83 189.475 265.117 183.301 273.597 182.073Z" fill="#31733A"/>
<path d="M53.9955 52.9579C58.836 52.1049 63.4428 55.3651 64.2478 60.2139C65.053 65.0626 61.7473 69.6369 56.8908 70.3939C52.1015 71.1406 47.6048 67.8906 46.8108 63.1091C46.0168 58.3276 49.222 53.7989 53.9955 52.9579Z" fill="#EC2E29"/>
<path d="M24.9472 193.941C24.9912 191.523 24.3815 183.747 25.3547 182.016C25.9062 181.654 26.1997 181.553 26.8627 181.669C27.1492 181.719 27.768 182.073 27.7972 182.3C28.1512 185.048 28.1955 209.573 27.7677 210.781C27.1345 211.358 26.2192 211.319 25.3292 211.404C24.6807 210.466 24.9457 198.688 24.942 196.987C20.1042 197.007 14.7818 197.133 9.98209 196.955C9.96456 201.654 9.97632 206.354 10.0173 211.054C9.13762 211.121 7.77506 211.346 7.09486 210.873C7.01416 210.368 6.91976 208.504 6.97044 208.039C7.41059 203.994 6.12214 183.983 7.55241 181.451C8.06706 181.569 9.69171 181.855 9.75089 182.12C10.2738 184.457 10.0082 191.877 9.99136 194.016L24.9472 193.941Z" fill="#31733A"/>
<path d="M320.257 182.102C322.682 181.674 327.972 183.39 328.517 186.033C328.315 187.055 328.507 186.695 327.817 187.423C325.54 187.892 323.907 184.775 321.23 184.877C320.08 184.854 317.902 185.562 317.142 186.478C311.655 193.086 325.475 193.888 328.112 197.606C329.172 199.103 330.317 200.14 330.092 202.15C329.31 209.123 324.862 211.08 318.532 210.721C318.137 210.643 317.745 210.55 317.357 210.443C314.317 209.577 309.827 204.403 312.84 202.957C315.247 203.26 315.415 205.832 317.272 207.168C320.705 209.641 327.802 206.339 327.127 201.944C326.455 197.583 318.567 196.815 315.352 194.13C310.067 189.717 313.725 182.627 320.257 182.102Z" fill="#31733A"/>
<path d="M105.619 181.504C106.478 181.649 107.15 181.692 107.869 182.183C108.172 184.798 107.969 191.833 107.967 194.724C107.966 197.949 108.179 205.088 107.799 208.017C109.903 207.95 115.346 207.171 116.165 209.173C116.094 210.08 116.065 210.195 115.682 211.02C112.046 211.023 108.53 211.015 104.898 211.185C105.01 205.005 105.041 198.824 104.99 192.644C104.978 190.328 104.558 183.09 105.619 181.504Z" fill="#31733A"/>
<path d="M184.588 181.484C185.386 181.61 186.277 181.656 186.882 182.163C187.613 190.82 186.605 200.846 186.953 209.629C186.991 210.593 186.774 210.826 186.112 211.423C185.338 211.356 183.989 211.42 183.977 210.382C183.874 201.289 183.926 192.185 183.927 183.093C183.927 182.486 184.244 181.958 184.588 181.484Z" fill="#31733A"/>
</g>
<defs>
<clipPath id="clip0_175_5">
<rect width="331" height="212" fill="white"/>
</clipPath>
</defs>
</svg>
